<svg width="40" height="40" viewBox="0 0 40 40" fill="none" xmlns="http://www.w3.org/2000/svg">
<path d="M26.1324 0C24.9702 0 23.8663 0.523181 22.799 1.02859C21.813 1.4956 20.8821 1.93652 20.0001 1.93652C19.1181 1.93652 18.1872 1.4956 17.2012 1.02859C16.1339 0.522897 15.0304 0 13.8678 0C9.39193 0 6.14307 4.87779 6.14307 11.5978C6.14307 13.5928 6.43194 16.7634 6.9154 20.0794C6.96022 20.3857 7.22299 20.6133 7.53314 20.6133H32.4671C32.7772 20.6133 33.04 20.3858 33.0848 20.0794C33.5683 16.7634 33.8572 13.5931 33.8572 11.5978C33.8572 4.87741 30.608 0 26.1324 0ZM31.9261 19.3652H8.0741C7.64481 16.3032 7.39149 13.43 7.39149 11.5974C7.39149 5.60039 10.1152 1.24805 13.8678 1.24805C14.7496 1.24805 15.6808 1.68925 16.6667 2.15598C17.7341 2.66176 18.8375 3.18457 20.0001 3.18457C21.1627 3.18457 22.2662 2.66167 23.3335 2.15627C24.3195 1.68925 25.2506 1.24833 26.1324 1.24833C29.885 1.24833 32.6087 5.60067 32.6087 11.5977C32.6087 13.4298 32.3554 16.3032 31.9261 19.3652Z" fill="#384157"/>
<path d="M25.4869 19.3439H14.5132C14.1565 19.3439 13.8677 19.633 13.8677 19.9894V24.508C13.8677 24.6474 13.9129 24.7833 13.9967 24.8953L15.8042 27.3052V36.7725C15.8042 36.9787 15.9029 37.1731 16.0702 37.2944L19.6205 39.8764C19.7335 39.9587 19.8671 40 20 40C20.133 40 20.2666 39.9587 20.3796 39.8764L23.9299 37.2944C24.0968 37.1731 24.1959 36.979 24.1959 36.7725V27.3051L26.0033 24.8952C26.0869 24.7835 26.1324 24.6476 26.1324 24.5079V19.9893C26.1323 19.633 25.8434 19.3439 25.4869 19.3439ZM24.8413 24.2926L23.0339 26.7025C22.9503 26.8142 22.9048 26.9501 22.9048 27.0898V36.4436L20 38.5563L17.0953 36.4436V27.0898C17.0953 26.9504 17.0501 26.8145 16.9662 26.7025L15.1587 24.2926V20.6349H24.8413V24.2926Z" fill="#384157"/>
<path d="M15.1587 2.56067C11.955 2.56067 9.34912 5.16693 9.34912 8.37021C9.34912 8.7265 9.63799 9.01575 9.99466 9.01575C10.3513 9.01575 10.6402 8.7266 10.6402 8.37021C10.6402 5.87856 12.6674 3.85165 15.1588 3.85165C15.5154 3.85165 15.8043 3.56249 15.8043 3.20611C15.8043 2.84973 15.5153 2.56067 15.1587 2.56067Z" fill="#384157"/>
<path d="M23.7709 29.7109L16.6704 27.1289C16.334 27.0065 15.9651 27.1802 15.8435 27.5149C15.7211 27.8499 15.8944 28.22 16.2292 28.342L23.3297 30.9241C23.4029 30.9505 23.4772 30.9631 23.5505 30.9631C23.8138 30.9631 24.0617 30.8001 24.1566 30.5381C24.2789 30.2032 24.1056 29.833 23.7709 29.7109Z" fill="#384157"/>
<path d="M23.7709 32.9385L16.6704 30.3565C16.334 30.2351 15.9651 30.4074 15.8435 30.7424C15.7211 31.0775 15.8944 31.4476 16.2292 31.5696L23.3297 34.1517C23.4029 34.1782 23.4772 34.1907 23.5505 34.1907C23.8138 34.1907 24.0617 34.0277 24.1566 33.7657C24.2789 33.4307 24.1056 33.0605 23.7709 32.9385Z" fill="#384157"/>
<path d="M23.7709 36.166L16.6704 33.584C16.334 33.462 15.9651 33.6353 15.8435 33.97C15.7211 34.305 15.8944 34.6752 16.2292 34.7971L23.3297 37.3792C23.4029 37.4057 23.4772 37.4183 23.5505 37.4183C23.8138 37.4183 24.0617 37.2552 24.1566 36.9932C24.2789 36.6582 24.1056 36.288 23.7709 36.166Z" fill="#384157"/>
</svg>
