<svg width="40" height="40" viewBox="0 0 40 40" fill="none" xmlns="http://www.w3.org/2000/svg">
<path d="M5.46711 16.8369C5.78204 16.8369 6.03737 16.5816 6.03737 16.2668C6.03737 15.952 5.78204 15.6965 5.46711 15.6965C5.15217 15.6965 4.89697 15.9519 4.89697 16.2668C4.89697 16.5817 5.15231 16.8369 5.46711 16.8369Z" fill="#384157"/>
<path d="M9.59974 6.54306C9.89454 6.54306 10.1331 6.30426 10.1331 6.00973V4.94306C10.1331 4.64853 9.89454 4.40973 9.59974 4.40973C9.30494 4.40973 9.06641 4.64853 9.06641 4.94306V6.00973C9.06641 6.30426 9.30494 6.54306 9.59974 6.54306Z" fill="#384157"/>
<path d="M9.59974 7.60974C9.30494 7.60974 9.06641 7.84854 9.06641 8.14307V9.20974C9.06641 9.50427 9.30494 9.74307 9.59974 9.74307C9.89454 9.74307 10.1331 9.50427 10.1331 9.20974V8.14307C10.1331 7.84854 9.89454 7.60974 9.59974 7.60974Z" fill="#384157"/>
<path d="M7.46644 7.60976H8.5331C8.8279 7.60976 9.06644 7.37096 9.06644 7.07642C9.06644 6.78189 8.8279 6.54309 8.5331 6.54309H7.46644C7.17164 6.54309 6.93311 6.78189 6.93311 7.07642C6.93311 7.37096 7.17164 7.60976 7.46644 7.60976Z" fill="#384157"/>
<path d="M10.6666 7.60976H11.7333C12.0281 7.60976 12.2666 7.37096 12.2666 7.07642C12.2666 6.78189 12.0281 6.54309 11.7333 6.54309H10.6666C10.3718 6.54309 10.1333 6.78189 10.1333 7.07642C10.1333 7.37096 10.3718 7.60976 10.6666 7.60976Z" fill="#384157"/>
<path d="M33.333 16.1431C34.3622 16.1431 35.1996 15.3056 35.1996 14.2764C35.1996 13.2472 34.3622 12.4097 33.333 12.4097C32.3038 12.4097 31.4663 13.2472 31.4663 14.2764C31.4663 15.3056 32.3038 16.1431 33.333 16.1431ZM33.333 13.4764C33.7742 13.4764 34.133 13.8352 34.133 14.2764C34.133 14.7176 33.7742 15.0764 33.333 15.0764C32.8918 15.0764 32.533 14.7176 32.533 14.2764C32.533 13.8352 32.8918 13.4764 33.333 13.4764Z" fill="#384157"/>
<path d="M28.4007 6.70357C28.7156 6.70357 28.971 6.44824 28.971 6.13344C28.971 5.81864 28.7156 5.56317 28.4007 5.56317C28.0858 5.56317 27.8306 5.8185 27.8306 6.13344C27.8306 6.44837 28.0859 6.70357 28.4007 6.70357Z" fill="#384157"/>
<path d="M32.9734 25.3586L33.0283 24.8621L33.6622 21.5181C33.6685 21.4855 33.6715 21.4522 33.6715 21.4189C33.6715 19.9803 32.5013 18.8098 31.0627 18.8098C30.6247 18.8098 30.1914 18.921 29.8097 19.1309C29.5066 19.2975 29.1591 19.2973 28.857 19.1311C28.4747 18.921 28.0414 18.8098 27.6034 18.8098C26.1649 18.8098 24.9946 19.9803 24.9946 21.4189C24.9946 21.4522 24.9977 21.4855 25.0039 21.5181L25.6315 24.8217L25.6746 25.2097H22.9825C22.7106 25.2097 22.4825 25.4141 22.4522 25.6842L22.1079 28.7853L20.9194 26.7047C20.7121 26.3419 20.3387 26.1253 19.921 26.125H19.9205C19.5027 26.125 19.1287 26.3414 18.921 26.7047L17.7325 28.7847L17.3882 25.6842C17.3579 25.4142 17.1298 25.2097 16.8579 25.2097H14.3526L14.3615 25.1287L14.9954 21.7847C15.0017 21.7522 15.0047 21.7189 15.0047 21.6855C15.0047 20.247 13.8345 19.0765 12.3959 19.0765C11.9579 19.0765 11.5246 19.1877 11.1429 19.3975C10.8398 19.5642 10.4923 19.5639 10.1902 19.3978C9.80794 19.1877 9.37461 19.0765 8.9366 19.0765C7.49807 19.0765 6.3278 20.247 6.3278 21.6855C6.3278 21.7189 6.33087 21.7522 6.33714 21.7847L6.96474 25.0883L6.99581 25.3679C5.70834 25.7777 4.7998 26.9789 4.7998 28.3547V35.343C4.7998 35.6375 5.03834 35.8763 5.33314 35.8763H34.6665C34.9613 35.8763 35.1998 35.6375 35.1998 35.343V28.3547C35.1998 26.9755 34.2743 25.7594 32.9734 25.3586ZM27.6034 19.8763C27.8622 19.8763 28.1179 19.9417 28.3425 20.0654C28.9618 20.4063 29.7023 20.4069 30.3237 20.0654C30.5482 19.9417 30.8039 19.8763 31.0627 19.8763C31.8977 19.8763 32.5794 20.5433 32.6043 21.3725L31.9741 24.7039L31.5205 28.7846L30.3319 26.7046C30.1246 26.3415 29.7513 26.1249 29.333 26.1249C28.9147 26.1249 28.5413 26.3415 28.3341 26.7046L27.145 28.7849L26.6857 24.6635L26.0617 21.3723C26.0867 20.5433 26.7686 19.8763 27.6034 19.8763ZM8.93674 20.143C9.19554 20.143 9.45127 20.2083 9.67581 20.3321C10.2951 20.673 11.0357 20.6735 11.657 20.3321C11.8815 20.2083 12.1373 20.143 12.3961 20.143C13.231 20.143 13.9127 20.8099 13.9377 21.6391L13.3074 24.9706L12.8538 29.0513L11.6653 26.9713C11.4579 26.6082 11.0846 26.3915 10.6663 26.3915C10.2481 26.3915 9.87461 26.6082 9.66741 26.9713L8.47834 29.0515L8.01901 24.9302L7.395 21.639C7.42007 20.8099 8.10194 20.143 8.93674 20.143ZM34.1331 34.8097H5.86647V28.3547C5.86647 27.5183 6.37407 26.7779 7.1166 26.4531L7.4498 29.4518C7.49714 29.8721 7.80714 30.2119 8.22114 30.2977C8.29047 30.3119 8.35861 30.3187 8.42634 30.3187C8.77061 30.3187 9.08621 30.1385 9.26381 29.827L10.5935 27.5005C10.5993 27.4901 10.6175 27.4583 10.6665 27.4583C10.7154 27.4583 10.7337 27.4901 10.7394 27.5005L12.0691 29.827C12.2811 30.1994 12.6869 30.3846 13.1118 30.2975C13.5258 30.2118 13.8358 29.8721 13.8831 29.4511L14.2347 26.2762H16.3811L16.7041 29.1843C16.7505 29.6049 17.0603 29.9453 17.4749 30.031C17.8905 30.1159 18.3087 29.9274 18.5181 29.5605L19.8473 27.2345C19.853 27.2238 19.8713 27.1918 19.9207 27.1918C19.9697 27.1918 19.9879 27.2235 19.9937 27.2339L21.3229 29.5607C21.501 29.8722 21.8166 30.0525 22.1609 30.0525C22.2286 30.0525 22.2973 30.0454 22.3661 30.0311C22.7806 29.9454 23.0901 29.6054 23.1374 29.1847L23.4603 26.2765H25.7934L26.1166 29.1853C26.1639 29.6055 26.4739 29.9454 26.8879 30.0311C26.9573 30.0454 27.0254 30.0522 27.0931 30.0522C27.4374 30.0522 27.753 29.8719 27.9306 29.5605L29.2603 27.2339C29.2661 27.2235 29.2843 27.1918 29.3333 27.1918C29.3822 27.1918 29.4005 27.2235 29.4062 27.2339L30.7359 29.5605C30.9485 29.9326 31.3542 30.1183 31.7786 30.031C32.1926 29.9453 32.5026 29.6055 32.5499 29.1846L32.8542 26.4363C33.6123 26.7546 34.1333 27.5113 34.1333 28.3546V34.8097H34.1331Z" fill="#384157"/>
<path d="M15.9283 16.36C15.9283 16.3933 15.9314 16.4267 15.9376 16.4595L16.5079 19.4581L16.9486 23.4229C16.9934 23.826 17.2902 24.1524 17.6871 24.2347C17.7511 24.248 17.8152 24.2544 17.8783 24.2544C18.2086 24.2544 18.519 24.0792 18.6882 23.7836L19.9444 21.6693L21.1527 23.7833C21.3538 24.1357 21.7558 24.318 22.1522 24.2349C22.5495 24.1529 22.847 23.8268 22.8923 23.4232L23.3262 19.4987L23.9027 16.4593C23.909 16.4265 23.912 16.3932 23.912 16.3599C23.912 15.9361 23.793 15.5433 23.6008 15.1965C24.1948 14.5987 24.5328 13.7935 24.5328 12.9429C24.533 11.5703 23.6624 10.4 22.4456 9.94666C23.0859 9.3484 23.4663 8.50666 23.4663 7.60973V4.65693C23.4663 4.3624 23.2278 4.1236 22.933 4.1236C22.6382 4.1236 22.3996 4.3624 22.3996 4.65693V7.60973C22.3996 8.22666 22.1287 8.80386 21.6763 9.2048C21.3744 8.5792 20.7394 8.14306 19.9996 8.14306C19.2599 8.14306 18.6247 8.5792 18.323 9.2048C17.8707 8.804 17.5996 8.22693 17.5996 7.60973V4.65693C17.5996 4.3624 17.3611 4.1236 17.0663 4.1236C16.7715 4.1236 16.533 4.3624 16.533 4.65693V7.60973C16.533 8.50653 16.9135 9.34826 17.5538 9.94653C16.337 10.4 15.4663 11.5701 15.4663 12.9431C15.4663 13.7445 15.7668 14.5048 16.2978 15.0896C16.0675 15.4599 15.9283 15.8928 15.9283 16.36ZM22.272 19.3405L21.8767 22.9012L20.8704 21.1405C20.6735 20.7952 20.3188 20.5889 19.921 20.5887H19.9204C19.5226 20.5887 19.1674 20.7947 18.9699 21.1403L17.9636 22.9015L17.562 19.2999L16.9954 16.3139C17.0199 15.5891 17.6172 15.0068 18.348 15.0068C18.5756 15.0068 18.7996 15.0641 18.997 15.1727C19.5751 15.4909 20.2658 15.4909 20.8439 15.1727C21.0439 15.0625 21.2622 15.0068 21.4923 15.0068C22.223 15.0068 22.8204 15.5891 22.845 16.3141L22.272 19.3405ZM19.9996 9.20973C20.4408 9.20973 20.7996 9.56853 20.7996 10.0097C20.7996 10.4509 20.4408 10.8097 19.9996 10.8097C19.5584 10.8097 19.1996 10.4509 19.1996 10.0097C19.1996 9.56853 19.5584 9.20973 19.9996 9.20973ZM18.3383 10.8429C18.6458 11.4529 19.2714 11.8764 19.9996 11.8764C20.7279 11.8764 21.3536 11.4528 21.661 10.8429C22.6811 11.0021 23.4663 11.8791 23.4663 12.9431C23.4663 13.4861 23.2508 13.9949 22.8854 14.3879C22.4907 14.1083 22.0118 13.9403 21.4923 13.9403C21.086 13.9403 20.684 14.0433 20.3298 14.2384C20.0694 14.3811 19.7714 14.3813 19.511 14.2387C19.1574 14.0433 18.7552 13.9403 18.3479 13.9403C17.8703 13.9403 17.4275 14.0837 17.052 14.3236C16.7236 13.9401 16.5328 13.4565 16.5328 12.9432C16.533 11.8791 17.318 11.0021 18.3383 10.8429Z" fill="#384157"/>
</svg>
