<svg width="483" height="483" viewBox="0 0 483 483" fill="none" xmlns="http://www.w3.org/2000/svg">
<g clip-path="url(#clip0)">
<path d="M475.59 268.571L390.374 244.411C381.757 241.991 372.589 242.423 364.238 245.643L369.038 234.539L385.934 216.795C407.448 194.143 423.423 166.815 432.606 136.955C444.628 97.663 422.522 56.065 383.23 44.042C373.621 41.102 363.517 40.139 353.526 41.211C325.677 44.152 297.833 35.619 276.414 17.579C245.032 -8.94501 198.089 -5.00801 171.565 26.375C165.077 34.051 160.211 42.963 157.262 52.571C148.142 82.453 146.069 114.042 151.206 144.859L155.262 169.027L137.95 260.699C127.814 246.108 109.53 239.565 92.438 244.411L7.22201 268.571C3.78101 269.548 1.40601 272.69 1.40601 276.267V474.811C1.40601 479.229 4.98801 482.811 9.40601 482.811H473.406C477.824 482.811 481.406 479.229 481.406 474.811V276.267C481.406 272.69 479.031 269.548 475.59 268.571ZM148.142 292.931L171.246 170.595C171.41 169.666 171.41 168.716 171.246 167.787L166.95 142.187C162.231 113.817 164.148 84.74 172.55 57.235C182.021 26.404 214.693 9.08799 245.525 18.559C253.06 20.874 260.049 24.69 266.07 29.779C290.834 50.653 323.038 60.528 355.246 57.123C387.315 53.681 416.103 76.888 419.545 108.957C420.387 116.797 419.632 124.727 417.326 132.267C408.864 159.751 394.155 184.904 374.35 205.755L356.47 224.531C355.817 225.211 355.292 226.002 354.918 226.867L305.518 341.147C302.277 348.636 293.578 352.08 286.088 348.838C279.947 346.18 276.358 339.726 277.342 333.107L294.822 216.227C297.35 198.689 286.77 181.911 269.854 176.635C266.498 175.602 263.005 175.079 259.494 175.083C245.66 175.092 233.045 182.997 227.006 195.443L175.99 302.051C172.468 309.412 163.645 312.524 156.284 309.002C150.24 306.11 146.898 299.514 148.142 292.931ZM270.686 269.435C251.015 276.028 229.599 275.107 210.566 266.851L241.406 202.347C246.109 192.43 257.96 188.204 267.876 192.907C275.805 196.667 280.329 205.184 279.006 213.859V213.819L270.686 269.435ZM145.406 321.019C159.152 330.659 178.111 327.33 187.75 313.583C188.775 312.122 189.669 310.573 190.422 308.955L203.678 281.211C223.884 290.354 246.605 292.329 268.086 286.811L261.518 330.707C259.005 347.517 270.596 363.182 287.406 365.695C301.207 367.758 314.669 360.277 320.206 347.467L337.406 307.715V409.899C337.241 423.944 325.721 435.195 311.676 435.03C301.452 434.91 292.294 428.678 288.43 419.211L270.766 375.379C264.17 359.164 245.678 351.366 229.463 357.962C221.546 361.182 215.266 367.463 212.046 375.379L194.382 419.219C189.073 432.223 174.228 438.461 161.224 433.153C151.755 429.288 145.523 420.126 145.406 409.899V321.019V321.019ZM465.406 466.811H17.406V282.315L96.806 259.795C108.61 256.423 121.149 261.886 126.718 272.827C128.48 276.335 129.4 280.205 129.406 284.131V409.899C129.562 432.781 148.238 451.203 171.12 451.047C187.877 450.932 202.914 440.736 209.222 425.211L226.886 381.379C230.178 373.36 239.348 369.528 247.367 372.82C251.25 374.414 254.332 377.496 255.926 381.379L273.59 425.211C282.203 446.41 306.371 456.614 327.57 448.001C343.095 441.694 353.292 426.656 353.406 409.899V284.131C353.412 280.205 354.332 276.335 356.094 272.827C361.663 261.886 374.202 256.423 386.006 259.795L465.406 282.315V466.811V466.811Z" fill="#384157"/>
<path d="M223.886 38.443C204.048 44.356 188.489 59.812 182.446 79.611L179.174 90.275L194.47 94.963L197.742 84.299C202.223 69.617 213.759 58.156 228.47 53.771L223.886 38.443Z" fill="#384157"/>
</g>
<defs>
<clipPath id="clip0">
<rect width="482.811" height="482.811" fill="white"/>
</clipPath>
</defs>
</svg>
