<svg width="32" height="32" viewBox="0 0 32 32" fill="none" xmlns="http://www.w3.org/2000/svg">
<path d="M29.9376 1.29034H2.06243C0.925404 1.29034 0 2.21756 0 3.35738V23.4813C0 24.6212 0.925404 25.5484 2.06243 25.5484H29.9376C31.0746 25.5484 32 24.6212 32 23.4813V3.35738C32 2.21756 31.0746 1.29034 29.9376 1.29034ZM30.9678 23.4813C30.9678 24.0519 30.5056 24.5161 29.9376 24.5161H2.06243C1.49441 24.5161 1.03223 24.0518 1.03223 23.4813V3.35738C1.03223 2.78679 1.49441 2.3225 2.06243 2.3225H29.9376C30.5056 2.3225 30.9678 2.78679 30.9678 3.35738V23.4813Z" fill="#384157"/>
<path d="M19.6197 28.5707L19.1035 24.9577C19.0663 24.6974 18.8437 24.504 18.5804 24.504H13.4191C13.1562 24.504 12.9334 24.6974 12.896 24.9577L12.3798 28.5707C12.3581 28.7222 12.4034 28.8757 12.5037 28.9913C12.6041 29.1069 12.7496 29.1735 12.9029 29.1735H19.0964C19.2498 29.1735 19.3955 29.1069 19.4956 28.9913C19.5959 28.8757 19.6413 28.7221 19.6197 28.5707ZM13.5118 28.117L13.8772 25.5606H18.1221L18.4875 28.117H13.5118Z" fill="#384157"/>
<path d="M29.9355 2.83875H2.06449C1.77931 2.83875 1.54834 3.06994 1.54834 3.3549V23.4839C1.54834 23.7688 1.77931 24.0001 2.06449 24.0001H29.9355C30.2207 24.0001 30.4516 23.7689 30.4516 23.4839V3.35482C30.4516 3.06994 30.2206 2.83875 29.9355 2.83875ZM29.4193 22.9678H2.58057V3.87098H29.4193V22.9678Z" fill="#384157"/>
<path d="M18.153 7.48389C17.6892 7.48389 17.2567 7.66738 16.8753 7.82895C16.5556 7.96466 16.2544 8.09243 16.0002 8.09243C15.746 8.09243 15.4446 7.96443 15.1251 7.82895C14.7436 7.66738 14.3111 7.48389 13.8474 7.48389C12.104 7.48389 10.8389 9.15075 10.8389 11.447C10.8389 12.2672 11.5333 19.871 13.8474 19.871C14.667 19.871 14.9125 18.7709 15.2534 17.2483C15.4257 16.4774 15.7462 15.0431 15.9989 14.8802C16.3597 14.8815 16.7326 16.7752 16.8551 17.3974C17.1377 18.8333 17.3419 19.871 18.153 19.871C20.467 19.871 21.1615 12.2671 21.1615 11.447C21.1614 9.15067 19.8964 7.48389 18.153 7.48389ZM18.2655 18.7987C18.1232 18.4947 17.972 17.7282 17.8678 17.1977C17.5442 15.5527 17.209 13.8522 15.9984 13.848C14.955 13.8524 14.6103 15.3925 14.2459 17.023C14.1117 17.6219 13.9166 18.4947 13.7463 18.8059C13.0915 18.4075 11.8712 14.4575 11.8712 11.4469C11.8712 9.99072 12.5501 8.51612 13.8474 8.51612C14.1016 8.51612 14.403 8.64389 14.7225 8.7796C15.104 8.94117 15.5365 9.12466 16.0002 9.12466C16.4639 9.12466 16.8962 8.94117 17.2778 8.7796C17.5976 8.64389 17.899 8.51612 18.153 8.51612C19.4503 8.51612 20.1292 9.99072 20.1292 11.4469C20.1292 14.441 18.9225 18.3636 18.2655 18.7987Z" fill="#384157"/>
<path d="M20.6454 28.129H10.8389C10.5537 28.129 10.3228 28.3602 10.3228 28.6452V30.1936C10.3228 30.4784 10.5537 30.7097 10.8389 30.7097H20.6454C20.9306 30.7097 21.1615 30.4785 21.1615 30.1936V28.6452C21.1615 28.3603 20.9305 28.129 20.6454 28.129ZM20.1292 29.6774H11.3551V29.1613H20.1292V29.6774Z" fill="#384157"/>
</svg>
