<svg width="32" height="32" viewBox="0 0 32 32" fill="none" xmlns="http://www.w3.org/2000/svg">
<g clip-path="url(#clip0)">
<path d="M31.6386 20.6765C31.5093 20.6328 28.4371 19.6192 24.2 20.9021C23.2552 21.1885 22.2875 21.6557 21.263 22.1501C20.1088 22.7071 18.915 23.2837 17.7269 23.6008C17.4422 23.6768 17.2733 23.9691 17.3494 24.2536C17.4254 24.5387 17.7205 24.707 18.0019 24.6315C19.288 24.2881 20.5275 23.6896 21.7269 23.1107C22.7126 22.6347 23.6437 22.1849 24.5094 21.923C27.599 20.9881 30.0448 21.3832 30.9333 21.5902V29.8579H1.06664V21.5901C1.9568 21.3832 4.40211 20.988 7.49062 21.9235C8.35648 22.1853 9.2882 22.6352 10.2741 23.111C11.6471 23.7742 13.0674 24.4598 14.5461 24.7608C14.8351 24.8195 15.1162 24.6333 15.1746 24.3446C15.2333 24.0557 15.0469 23.7744 14.7583 23.7155C13.4104 23.4411 12.0517 22.7851 10.7376 22.1507C9.71304 21.6558 8.74531 21.1886 7.79999 20.9028C3.56343 19.6201 0.49039 20.6332 0.361328 20.6766C0.145312 20.7501 0 20.9533 0 21.1815V30.3911C0 30.6855 0.238672 30.9245 0.533359 30.9245H31.4667C31.7614 30.9245 32.0001 30.6856 32.0001 30.3911V21.1815C32 20.953 31.8549 20.7498 31.6386 20.6765Z" fill="#384157"/>
<path d="M17.6 13.7125C17.3053 13.7125 17.0666 13.9514 17.0666 14.2458V25.4383L16.2666 26.7183L15.4666 25.4383V14.6128C15.4666 14.3184 15.2279 14.0794 14.9333 14.0794C14.6386 14.0794 14.3999 14.3183 14.3999 14.6128V25.5912C14.3999 25.6912 14.4282 25.7893 14.4812 25.8739L15.8146 28.0072C15.9119 28.1632 16.0829 28.2578 16.2666 28.2578C16.4504 28.2578 16.6213 28.1629 16.7187 28.0071L18.052 25.8738C18.1054 25.789 18.1333 25.6911 18.1333 25.5911V14.2458C18.1333 13.9514 17.8947 13.7125 17.6 13.7125Z" fill="#384157"/>
<path d="M14.9336 22.3912V23.458L17.6002 25.058V23.9912L14.9336 22.3912Z" fill="#384157"/>
<path d="M14.9336 19.7245V20.7912L17.6002 22.3912V21.3245L14.9336 19.7245Z" fill="#384157"/>
<path d="M14.9336 17.0579V18.1245L17.6002 19.7245V18.6579L14.9336 17.0579Z" fill="#384157"/>
<path d="M19.3529 1.07546C18.6822 1.07546 18.0956 1.38561 17.5785 1.65889C17.1274 1.89733 16.701 2.12233 16.2863 2.12233C15.8524 2.12233 15.3028 1.87889 14.771 1.64311C14.1414 1.36389 13.4903 1.07538 12.8382 1.07538C10.3545 1.07538 8.55127 3.74366 8.55127 7.41967C8.55127 9.47967 9.73283 21.3066 12.8382 21.3066C13.8657 21.3066 14.2335 19.6533 14.7907 17.1509C15.0764 15.8701 15.7441 12.8707 16.2841 12.8683C17.0292 12.8709 17.4809 15.8107 17.7235 17.3899C18.0854 19.7483 18.3249 21.3067 19.3526 21.3067C22.4579 21.3067 23.6396 9.48007 23.6398 7.41975C23.6399 3.74374 21.8367 1.07546 19.3529 1.07546ZM19.4257 20.2683C19.1546 19.9147 18.9082 18.3104 18.7425 17.233C18.3356 14.5832 17.9148 11.8423 16.2841 11.8368C14.9164 11.8429 14.3918 14.1989 13.7846 16.9266C13.5158 18.1338 13.1137 19.9394 12.7799 20.2709C11.3263 20.0494 9.58252 11.6128 9.58252 7.41975C9.58252 4.39069 10.982 2.10671 12.8382 2.10671C13.2721 2.10671 13.8214 2.35014 14.3535 2.58561C14.9831 2.86483 15.6342 3.15335 16.2863 3.15335C16.9564 3.15335 17.5431 2.84319 18.0601 2.57014C18.5113 2.33171 18.9377 2.10639 19.3529 2.10639C21.2092 2.10639 22.6086 4.39069 22.6086 7.41944C22.6086 11.5979 20.8767 19.9909 19.4257 20.2683Z" fill="#384157"/>
<path d="M13.4285 2.6579C11.664 2.6579 10.2285 4.09337 10.2285 5.8579C10.2285 6.15227 10.4672 6.39125 10.7619 6.39125C11.0568 6.39125 11.2952 6.15235 11.2952 5.8579C11.2952 4.68165 12.252 3.72454 13.4286 3.72454C13.7233 3.72454 13.962 3.48563 13.962 3.19118C13.962 2.89673 13.7232 2.6579 13.4285 2.6579Z" fill="#384157"/>
</g>
<defs>
<clipPath id="clip0">
<rect width="32" height="32" fill="white"/>
</clipPath>
</defs>
</svg>
