<svg width="137" height="18" viewBox="0 0 137 18" fill="none" xmlns="http://www.w3.org/2000/svg">
<path d="M0.672 17V0.609999H6.062C7.70467 0.609999 9.13467 0.947332 10.352 1.622C11.584 2.29667 12.5373 3.25 13.212 4.482C13.8867 5.714 14.224 7.15133 14.224 8.794C14.224 10.4367 13.8867 11.874 13.212 13.106C12.5373 14.338 11.584 15.2987 10.352 15.988C9.13467 16.6627 7.70467 17 6.062 17H0.672ZM2.762 15.174H6.062C7.27933 15.174 8.33533 14.91 9.23 14.382C10.1393 13.854 10.836 13.1133 11.32 12.16C11.8187 11.2067 12.068 10.0847 12.068 8.794C12.068 7.518 11.8187 6.40333 11.32 5.45C10.8213 4.49667 10.1247 3.756 9.23 3.228C8.33533 2.7 7.27933 2.436 6.062 2.436H2.762V15.174ZM23.1816 17.264C22.0669 17.264 21.0696 17 20.1896 16.472C19.3096 15.944 18.6129 15.218 18.0996 14.294C17.6009 13.37 17.3516 12.3213 17.3516 11.148C17.3516 9.97467 17.5936 8.93333 18.0776 8.024C18.5763 7.1 19.2509 6.38133 20.1016 5.868C20.9669 5.34 21.9423 5.076 23.0276 5.076C24.1276 5.076 25.0883 5.34 25.9096 5.868C26.7309 6.38133 27.3616 7.06333 27.8016 7.914C28.2416 8.75 28.4616 9.66667 28.4616 10.664C28.4616 10.8253 28.4543 11.0013 28.4396 11.192C28.4249 11.3827 28.4029 11.566 28.3736 11.742H19.3316C19.3609 12.5193 19.5516 13.194 19.9036 13.766C20.2703 14.3233 20.7396 14.7633 21.3116 15.086C21.8836 15.394 22.5143 15.548 23.2036 15.548C24.0249 15.548 24.7069 15.3573 25.2496 14.976C25.8069 14.58 26.2396 14.0813 26.5476 13.48L28.1976 14.36C27.8309 15.1667 27.2003 15.856 26.3056 16.428C25.4256 16.9853 24.3843 17.264 23.1816 17.264ZM23.0276 6.748C22.1183 6.748 21.3116 7.04867 20.6076 7.65C19.9183 8.23667 19.5076 9.058 19.3756 10.114H26.3716C26.3716 9.46867 26.2103 8.89667 25.8876 8.398C25.5649 7.88467 25.1469 7.48133 24.6336 7.188C24.1349 6.89467 23.5996 6.748 23.0276 6.748ZM31.704 17V5.34H33.552V6.66C33.904 6.16133 34.3734 5.77267 34.96 5.494C35.5467 5.21533 36.1994 5.076 36.918 5.076C37.7687 5.076 38.5167 5.25933 39.162 5.626C39.822 5.99267 40.3354 6.49867 40.702 7.144C41.0834 7.78933 41.274 8.51533 41.274 9.322V17H39.382V9.938C39.382 9.014 39.118 8.28067 38.59 7.738C38.0767 7.18067 37.38 6.902 36.5 6.902C35.6347 6.902 34.9307 7.18067 34.388 7.738C33.86 8.28067 33.596 9.014 33.596 9.938V17H31.704ZM50.0441 17.132C48.8708 17.132 47.9615 16.8167 47.3161 16.186C46.6855 15.5407 46.3701 14.624 46.3701 13.436V7.144H44.1041V5.34H44.6981C45.2115 5.34 45.6148 5.186 45.9081 4.878C46.2161 4.55533 46.3701 4.13733 46.3701 3.624V1.556H48.2621V5.34H51.0781V7.144H48.2621V13.436C48.2621 13.6853 48.2988 13.9787 48.3721 14.316C48.4455 14.6387 48.6288 14.9247 48.9221 15.174C49.2301 15.4233 49.7215 15.548 50.3961 15.548C50.5135 15.548 50.6455 15.5407 50.7921 15.526C50.9535 15.5113 51.0928 15.4967 51.2101 15.482V17.022C51.0341 17.066 50.8361 17.0953 50.6161 17.11C50.3961 17.1247 50.2055 17.132 50.0441 17.132ZM58.1611 17.264C56.9144 17.264 55.9098 16.9413 55.1471 16.296C54.3844 15.636 54.0031 14.7927 54.0031 13.766C54.0031 12.9007 54.3331 12.182 54.9931 11.61C55.6531 11.0233 56.5698 10.598 57.7431 10.334L61.7911 9.432V9.102C61.7911 8.42733 61.5418 7.892 61.0431 7.496C60.5591 7.08533 59.9284 6.88 59.1511 6.88C58.4471 6.88 57.8311 7.056 57.3031 7.408C56.7751 7.74533 56.3864 8.2 56.1371 8.772L54.4431 7.892C54.6631 7.364 55.0078 6.88733 55.4771 6.462C55.9464 6.03667 56.4964 5.69933 57.1271 5.45C57.7578 5.20067 58.4324 5.076 59.1511 5.076C60.0458 5.076 60.8304 5.252 61.5051 5.604C62.1944 5.94133 62.7298 6.41067 63.1111 7.012C63.4924 7.61333 63.6831 8.31 63.6831 9.102V17H61.8351V15.394C61.4391 15.966 60.9111 16.4207 60.2511 16.758C59.6058 17.0953 58.9091 17.264 58.1611 17.264ZM56.0051 13.766C56.0051 14.3087 56.2104 14.7487 56.6211 15.086C57.0318 15.4087 57.5818 15.57 58.2711 15.57C58.9458 15.57 59.5471 15.416 60.0751 15.108C60.6178 14.7853 61.0358 14.3527 61.3291 13.81C61.6371 13.2673 61.7911 12.6587 61.7911 11.984V10.972L58.1831 11.808C57.5231 11.9547 56.9951 12.204 56.5991 12.556C56.2031 12.8933 56.0051 13.2967 56.0051 13.766ZM67.3672 17V0.609999H69.2592V17H67.3672ZM80.9583 17.264C79.7849 17.264 78.6923 17.0513 77.6803 16.626C76.6829 16.2007 75.8103 15.6067 75.0623 14.844C74.3143 14.0813 73.7276 13.1867 73.3023 12.16C72.8916 11.1333 72.6863 10.0113 72.6863 8.794C72.6863 7.57667 72.8916 6.45467 73.3023 5.428C73.7129 4.38667 74.2923 3.492 75.0403 2.744C75.7883 1.98133 76.6609 1.39467 77.6583 0.983999C78.6703 0.558666 79.7703 0.345999 80.9583 0.345999C82.1463 0.345999 83.2096 0.543999 84.1483 0.94C85.1016 1.336 85.9083 1.864 86.5683 2.524C87.2283 3.184 87.6976 3.91733 87.9763 4.724L84.9623 6.176C84.6836 5.384 84.1923 4.73133 83.4883 4.218C82.7989 3.69 81.9556 3.426 80.9583 3.426C79.9903 3.426 79.1396 3.65333 78.4063 4.108C77.6729 4.56267 77.1009 5.19333 76.6903 6C76.2943 6.792 76.0963 7.72333 76.0963 8.794C76.0963 9.86467 76.2943 10.8033 76.6903 11.61C77.1009 12.4167 77.6729 13.0473 78.4063 13.502C79.1396 13.9567 79.9903 14.184 80.9583 14.184C81.9556 14.184 82.7989 13.9273 83.4883 13.414C84.1923 12.886 84.6836 12.226 84.9623 11.434L87.9763 12.886C87.6976 13.6927 87.2283 14.426 86.5683 15.086C85.9083 15.746 85.1016 16.274 84.1483 16.67C83.2096 17.066 82.1463 17.264 80.9583 17.264ZM90.9411 17V0.609999H94.2411V17H90.9411ZM97.6511 3.91V0.609999H100.951V3.91H97.6511ZM97.6511 17V4.988H100.951V17H97.6511ZM104.361 17V4.988H107.441V6.462C107.749 5.87533 108.196 5.44267 108.783 5.164C109.37 4.87067 110.044 4.724 110.807 4.724C111.716 4.724 112.508 4.91467 113.183 5.296C113.872 5.67733 114.408 6.21267 114.789 6.902C115.17 7.57667 115.361 8.36867 115.361 9.278V17H112.061V9.982C112.061 9.29267 111.856 8.74267 111.445 8.332C111.034 7.90667 110.506 7.694 109.861 7.694C109.216 7.694 108.688 7.90667 108.277 8.332C107.866 8.74267 107.661 9.29267 107.661 9.982V17H104.361ZM118.548 3.91V0.609999H121.848V3.91H118.548ZM118.548 17V4.988H121.848V17H118.548ZM130.956 17.264C129.753 17.264 128.668 16.9927 127.7 16.45C126.746 15.8927 125.991 15.1373 125.434 14.184C124.876 13.2307 124.598 12.16 124.598 10.972C124.598 9.784 124.876 8.72067 125.434 7.782C125.991 6.82867 126.746 6.08067 127.7 5.538C128.668 4.99533 129.753 4.724 130.956 4.724C131.85 4.724 132.679 4.878 133.442 5.186C134.204 5.494 134.857 5.92667 135.4 6.484C135.942 7.02667 136.331 7.672 136.566 8.42L133.75 9.784C133.559 9.13867 133.214 8.63267 132.716 8.266C132.217 7.88467 131.63 7.694 130.956 7.694C130.09 7.694 129.379 8.002 128.822 8.618C128.279 9.234 128.008 10.026 128.008 10.994C128.008 11.962 128.279 12.754 128.822 13.37C129.379 13.986 130.09 14.294 130.956 14.294C131.645 14.294 132.232 14.1033 132.716 13.722C133.214 13.3407 133.559 12.8347 133.75 12.204L136.566 13.59C136.346 14.294 135.964 14.9247 135.422 15.482C134.879 16.0393 134.226 16.4793 133.464 16.802C132.701 17.11 131.865 17.264 130.956 17.264Z" fill="#384157"/>
</svg>
