<svg width="60" height="60" viewBox="0 0 60 60" fill="none" xmlns="http://www.w3.org/2000/svg">
<path d="M38.4375 15H42.1875C42.4361 15 42.6746 14.9012 42.8504 14.7254C43.0262 14.5496 43.125 14.3111 43.125 14.0625V6.5625C43.125 6.31386 43.0262 6.0754 42.8504 5.89959C42.6746 5.72377 42.4361 5.625 42.1875 5.625H38.4375C38.1889 5.625 37.9504 5.72377 37.7746 5.89959C37.5988 6.0754 37.5 6.31386 37.5 6.5625V14.0625C37.5 14.3111 37.5988 14.5496 37.7746 14.7254C37.9504 14.9012 38.1889 15 38.4375 15ZM39.375 7.5H41.25V13.125H39.375V7.5Z" fill="#F3F0EF"/>
<path d="M45 5.625H46.875V15H45V5.625Z" fill="#F3F0EF"/>
<path d="M46.875 25.3125V17.8125C46.875 17.5639 46.7762 17.3254 46.6004 17.1496C46.4246 16.9738 46.1861 16.875 45.9375 16.875H42.1875C41.9389 16.875 41.7004 16.9738 41.5246 17.1496C41.3488 17.3254 41.25 17.5639 41.25 17.8125V25.3125C41.25 25.5611 41.3488 25.7996 41.5246 25.9754C41.7004 26.1512 41.9389 26.25 42.1875 26.25H45.9375C46.1861 26.25 46.4246 26.1512 46.6004 25.9754C46.7762 25.7996 46.875 25.5611 46.875 25.3125ZM45 24.375H43.125V18.75H45V24.375Z" fill="#F3F0EF"/>
<path d="M37.5 16.875H39.375V26.25H37.5V16.875Z" fill="#F3F0EF"/>
<path d="M49.6875 15H53.4375C53.6861 15 53.9246 14.9012 54.1004 14.7254C54.2762 14.5496 54.375 14.3111 54.375 14.0625V6.5625C54.375 6.31386 54.2762 6.0754 54.1004 5.89959C53.9246 5.72377 53.6861 5.625 53.4375 5.625H49.6875C49.4389 5.625 49.2004 5.72377 49.0246 5.89959C48.8488 6.0754 48.75 6.31386 48.75 6.5625V14.0625C48.75 14.3111 48.8488 14.5496 49.0246 14.7254C49.2004 14.9012 49.4389 15 49.6875 15ZM50.625 7.5H52.5V13.125H50.625V7.5Z" fill="#F3F0EF"/>
<path d="M49.6875 26.25H53.4375C53.6861 26.25 53.9246 26.1512 54.1004 25.9754C54.2762 25.7996 54.375 25.5611 54.375 25.3125V17.8125C54.375 17.5639 54.2762 17.3254 54.1004 17.1496C53.9246 16.9738 53.6861 16.875 53.4375 16.875H49.6875C49.4389 16.875 49.2004 16.9738 49.0246 17.1496C48.8488 17.3254 48.75 17.5639 48.75 17.8125V25.3125C48.75 25.5611 48.8488 25.7996 49.0246 25.9754C49.2004 26.1512 49.4389 26.25 49.6875 26.25ZM50.625 18.75H52.5V24.375H50.625V18.75Z" fill="#F3F0EF"/>
<path d="M38.4375 37.5H42.1875C42.4361 37.5 42.6746 37.4012 42.8504 37.2254C43.0262 37.0496 43.125 36.8111 43.125 36.5625V29.0625C43.125 28.8139 43.0262 28.5754 42.8504 28.3996C42.6746 28.2238 42.4361 28.125 42.1875 28.125H38.4375C38.1889 28.125 37.9504 28.2238 37.7746 28.3996C37.5988 28.5754 37.5 28.8139 37.5 29.0625V36.5625C37.5 36.8111 37.5988 37.0496 37.7746 37.2254C37.9504 37.4012 38.1889 37.5 38.4375 37.5ZM39.375 30H41.25V35.625H39.375V30Z" fill="#F3F0EF"/>
<path d="M52.5 28.125H54.375V37.5H52.5V28.125Z" fill="#F3F0EF"/>
<path d="M49.6875 28.125H45.9375C45.6889 28.125 45.4504 28.2238 45.2746 28.3996C45.0988 28.5754 45 28.8139 45 29.0625V36.5625C45 36.8111 45.0988 37.0496 45.2746 37.2254C45.4504 37.4012 45.6889 37.5 45.9375 37.5H49.6875C49.9361 37.5 50.1746 37.4012 50.3504 37.2254C50.5262 37.0496 50.625 36.8111 50.625 36.5625V29.0625C50.625 28.8139 50.5262 28.5754 50.3504 28.3996C50.1746 28.2238 49.9361 28.125 49.6875 28.125ZM48.75 35.625H46.875V30H48.75V35.625Z" fill="#F3F0EF"/>
<path d="M6.76761 9.96833C6.01857 11.1432 5.62204 12.5082 5.62503 13.9016V14.2234C5.6224 15.1876 5.81103 16.1427 6.18 17.0335C6.54898 17.9243 7.09097 18.733 7.7746 19.4129L12.1875 23.8259V31.875C12.1875 33.3669 12.7802 34.7976 13.8351 35.8525C14.89 36.9074 16.3207 37.5 17.8125 37.5C19.3044 37.5 20.7351 36.9074 21.79 35.8525C22.8449 34.7976 23.4375 33.3669 23.4375 31.875V28.125C23.4375 27.1304 23.8326 26.1766 24.5359 25.4734C25.2391 24.7701 26.193 24.375 27.1875 24.375C28.1821 24.375 29.1359 24.7701 29.8392 25.4734C30.5424 26.1766 30.9375 27.1304 30.9375 28.125V30.1187C30.0538 30.3469 29.2836 30.8896 28.7713 31.645C28.2591 32.4004 28.0399 33.3167 28.1549 34.2222C28.2699 35.1276 28.7112 35.96 29.3961 36.5634C30.0809 37.1668 30.9623 37.4996 31.875 37.4996C32.7878 37.4996 33.6692 37.1668 34.354 36.5634C35.0389 35.96 35.4801 35.1276 35.5951 34.2222C35.7102 33.3167 35.491 32.4004 34.9787 31.645C34.4665 30.8896 33.6963 30.3469 32.8125 30.1187V28.125C32.8125 26.6332 32.2199 25.2024 31.165 24.1475C30.1101 23.0926 28.6794 22.5 27.1875 22.5C25.6957 22.5 24.2649 23.0926 23.2101 24.1475C22.1552 25.2024 21.5625 26.6332 21.5625 28.125V31.875C21.5625 32.8696 21.1674 33.8234 20.4642 34.5267C19.7609 35.2299 18.8071 35.625 17.8125 35.625C16.818 35.625 15.8641 35.2299 15.1609 34.5267C14.4576 33.8234 14.0625 32.8696 14.0625 31.875V23.8259L18.4753 19.4129C19.159 18.733 19.701 17.9243 20.07 17.0335C20.439 16.1427 20.6277 15.1876 20.625 14.2234V13.9016C20.628 12.5082 20.2315 11.1432 19.4825 9.96833L20.3505 9.10044C20.4375 9.01338 20.5066 8.91003 20.5537 8.79629C20.6008 8.68254 20.6251 8.56063 20.6251 8.43751C20.6251 8.31439 20.6008 8.19248 20.5537 8.07873C20.5066 7.96499 20.4375 7.86164 20.3505 7.77458L18.9442 6.36833C18.3946 5.82345 17.6516 5.51847 16.8776 5.52013C16.1037 5.5218 15.362 5.82997 14.8147 6.37722C14.2675 6.92446 13.9593 7.6662 13.9577 8.44012C13.956 9.21404 14.261 9.9571 14.8059 10.5067L16.2121 11.9129C16.2992 12 16.4025 12.0691 16.5163 12.1162C16.63 12.1633 16.7519 12.1875 16.875 12.1875C16.9982 12.1875 17.1201 12.1633 17.2338 12.1162C17.3476 12.0691 17.4509 12 17.538 11.9129L18.1137 11.3372C18.5334 12.1267 18.752 13.0075 18.75 13.9016V14.2234C18.752 14.9413 18.6116 15.6524 18.3369 16.3156C18.0621 16.9788 17.6586 17.5809 17.1496 18.0871L13.125 22.1118L9.10035 18.0871C8.59138 17.5809 8.18787 16.9787 7.91318 16.3155C7.63849 15.6523 7.49806 14.9412 7.50003 14.2234V13.9016C7.49808 13.0075 7.71664 12.1267 8.13636 11.3372L8.7121 11.9129C8.79916 12 8.90251 12.0691 9.01626 12.1162C9.13 12.1633 9.25192 12.1875 9.37503 12.1875C9.49815 12.1875 9.62006 12.1633 9.73381 12.1162C9.84756 12.0691 9.95091 12 10.038 11.9129L11.4442 10.5067C11.7179 10.2354 11.9352 9.9127 12.0838 9.55717C12.2325 9.20163 12.3094 8.82025 12.3102 8.4349C12.311 8.04956 12.2358 7.66785 12.0887 7.31167C11.9416 6.9555 11.7256 6.63189 11.4531 6.35941C11.1807 6.08693 10.857 5.87095 10.5009 5.72387C10.1447 5.57678 9.76299 5.5015 9.37764 5.50233C8.9923 5.50316 8.61091 5.58008 8.25538 5.7287C7.89984 5.87731 7.57716 6.09468 7.30585 6.36833L5.8996 7.77458C5.81254 7.86164 5.74348 7.96499 5.69637 8.07873C5.64925 8.19248 5.625 8.31439 5.625 8.43751C5.625 8.56063 5.64925 8.68254 5.69637 8.79629C5.74348 8.91003 5.81254 9.01338 5.8996 9.10044L6.76761 9.96833ZM33.75 33.75C33.75 34.1208 33.6401 34.4834 33.434 34.7917C33.228 35.1 32.9352 35.3404 32.5926 35.4823C32.25 35.6242 31.873 35.6613 31.5092 35.589C31.1455 35.5166 30.8114 35.3381 30.5492 35.0758C30.287 34.8136 30.1084 34.4795 30.0361 34.1158C29.9637 33.7521 30.0008 33.3751 30.1428 33.0325C30.2847 32.6899 30.525 32.397 30.8333 32.191C31.1417 31.985 31.5042 31.875 31.875 31.875C32.3721 31.8756 32.8487 32.0733 33.2002 32.4248C33.5517 32.7763 33.7494 33.2529 33.75 33.75ZM16.1317 9.18083C16.0341 9.08322 15.9567 8.96733 15.9038 8.83979C15.851 8.71225 15.8238 8.57556 15.8238 8.43751C15.8238 8.29946 15.851 8.16277 15.9038 8.03523C15.9567 7.90769 16.0341 7.7918 16.1317 7.69419C16.2293 7.59658 16.3452 7.51914 16.4728 7.46632C16.6003 7.41349 16.737 7.3863 16.875 7.3863C17.0131 7.3863 17.1498 7.41349 17.2773 7.46632C17.4049 7.51914 17.5207 7.59658 17.6184 7.69419L18.3618 8.43751L16.875 9.92427L16.1317 9.18083ZM8.63171 7.69419C8.72933 7.59658 8.84521 7.51914 8.97275 7.46632C9.10029 7.41349 9.23699 7.3863 9.37503 7.3863C9.51308 7.3863 9.64978 7.41349 9.77732 7.46632C9.90486 7.51914 10.0207 7.59658 10.1184 7.69419C10.216 7.7918 10.2934 7.90769 10.3462 8.03523C10.3991 8.16277 10.4262 8.29946 10.4262 8.43751C10.4262 8.57556 10.3991 8.71225 10.3462 8.83979C10.2934 8.96733 10.216 9.08322 10.1184 9.18083L9.37503 9.92427L7.88828 8.43751L8.63171 7.69419Z" fill="#F3F0EF"/>
<path d="M2.8125 46.875H23.4375V50.625C21.6976 50.627 20.0296 51.319 18.7993 52.5493C17.569 53.7796 16.877 55.4476 16.875 57.1875C16.875 57.4361 16.9738 57.6746 17.1496 57.8504C17.3254 58.0262 17.5639 58.125 17.8125 58.125H42.1875C42.4361 58.125 42.6746 58.0262 42.8504 57.8504C43.0262 57.6746 43.125 57.4361 43.125 57.1875C43.123 55.4476 42.431 53.7796 41.2007 52.5493C39.9704 51.319 38.3024 50.627 36.5625 50.625V46.875H57.1875C57.4361 46.875 57.6746 46.7762 57.8504 46.6004C58.0262 46.4246 58.125 46.1861 58.125 45.9375V2.8125C58.125 2.56386 58.0262 2.3254 57.8504 2.14959C57.6746 1.97377 57.4361 1.875 57.1875 1.875H2.8125C2.56386 1.875 2.3254 1.97377 2.14959 2.14959C1.97377 2.3254 1.875 2.56386 1.875 2.8125V45.9375C1.875 46.1861 1.97377 46.4246 2.14959 46.6004C2.3254 46.7762 2.56386 46.875 2.8125 46.875ZM41.1562 56.25H18.8438C19.0613 55.1919 19.637 54.2412 20.4738 53.5581C21.3106 52.8751 22.3573 52.5013 23.4375 52.5H36.5625C37.6427 52.5013 38.6894 52.8751 39.5262 53.5581C40.363 54.2412 40.9387 55.1919 41.1562 56.25ZM34.6875 50.625H25.3125V46.875H34.6875V50.625ZM56.25 45H3.75V41.25H56.25V45ZM56.25 3.75V39.375H3.75V3.75H56.25Z" fill="#F3F0EF"/>
<path d="M30 44.0625C30.5178 44.0625 30.9375 43.6428 30.9375 43.125C30.9375 42.6072 30.5178 42.1875 30 42.1875C29.4822 42.1875 29.0625 42.6072 29.0625 43.125C29.0625 43.6428 29.4822 44.0625 30 44.0625Z" fill="#F3F0EF"/>
</svg>
