<svg width="64" height="64" viewBox="0 0 64 64" fill="none" xmlns="http://www.w3.org/2000/svg">
<g clip-path="url(#clip0)">
<path d="M21.3159 28.971C20.8079 28.8725 20.3153 29.2042 20.2165 29.7128C20.0706 30.464 19.9966 31.2357 19.9966 32.0066C19.9966 38.6254 25.3813 44.0101 32.0001 44.0101C38.6189 44.0101 44.0036 38.6254 44.0036 32.0066C44.0036 25.3877 38.6189 20.003 32.0001 20.003C27.9364 20.003 24.1779 22.041 21.9463 25.4546C21.6628 25.8881 21.7846 26.4692 22.218 26.7526C22.6515 27.0362 23.2326 26.9144 23.516 26.4808C25.4 23.5991 28.5716 21.8786 32 21.8786C37.5846 21.8786 42.128 26.422 42.128 32.0066C42.128 37.5911 37.5846 42.1345 32 42.1345C26.4153 42.1345 21.872 37.5911 21.872 32.0066C21.872 31.3555 21.9344 30.7042 22.0575 30.0706C22.1563 29.5621 21.8242 29.0698 21.3159 28.971ZM59.2369 9.39801C56.1532 6.23933 52.0518 4.49982 47.6878 4.49982C43.3239 4.49982 39.2226 6.23933 36.1389 9.39801L32.3649 13.264C32.1674 13.4665 31.8325 13.4665 31.635 13.264L27.861 9.39801C24.7775 6.23933 20.676 4.49982 16.3121 4.49982C11.9484 4.49982 7.84647 6.23946 4.76306 9.39801C-1.58769 15.9036 -1.58769 26.4888 4.76306 32.9942L29.701 58.5398C30.9344 59.8154 33.058 59.8251 34.299 58.5398L51.2308 41.1955C51.5926 40.8249 51.5854 40.2311 51.2149 39.8694C50.8441 39.5075 50.2505 39.5148 49.8887 39.8854L32.957 57.2295C32.4365 57.7675 31.562 57.766 31.0431 57.2295L6.10521 31.684C0.459792 25.901 0.459792 16.4912 6.10521 10.7081C8.83289 7.91407 12.4578 6.37537 16.3121 6.37537C20.1665 6.37537 23.7913 7.9142 26.519 10.7081L30.293 14.5742C31.2101 15.5226 32.7861 15.5281 33.7071 14.5742L37.4811 10.7081C40.2086 7.91407 43.8336 6.37537 47.688 6.37537C51.5424 6.37537 55.1672 7.9142 57.8949 10.7081C63.5403 16.4912 63.5403 25.901 57.8949 31.684L52.9449 36.7546C52.583 37.1252 52.5903 37.719 52.9608 38.0807C53.3314 38.4425 53.9249 38.4351 54.2869 38.0647L59.2369 32.9941C65.5876 26.4888 65.5876 15.9036 59.2369 9.39801ZM33.1253 23.7541H30.8746C29.9439 23.7541 29.1866 24.5113 29.1866 25.4421V29.1932H25.4355C24.5048 29.1932 23.7475 29.9505 23.7475 30.8812V33.1319C23.7475 34.0627 24.5048 34.8199 25.4355 34.8199H29.1866V38.571C29.1866 39.5018 29.9439 40.259 30.8746 40.259H33.1253C34.0561 40.259 34.8133 39.5018 34.8133 38.571V34.8199H38.5644C39.4952 34.8199 40.2524 34.0627 40.2524 33.1319V30.8812C40.2524 29.9505 39.4952 29.1932 38.5644 29.1932H34.8133V25.4421C34.8133 24.5112 34.0561 23.7541 33.1253 23.7541ZM38.3768 31.0688V32.9443H34.2506C33.5267 32.9443 32.9377 33.5333 32.9377 34.2572V38.3834H31.0622V34.2572C31.0622 33.5333 30.4733 32.9443 29.7493 32.9443H25.6231V31.0688H29.7493C30.4733 31.0688 31.0622 30.4799 31.0622 29.7559V25.6297H32.9377V29.7559C32.9377 30.4799 33.5267 31.0688 34.2506 31.0688H38.3768Z" fill="#F3F0EF"/>
</g>
<defs>
<clipPath id="clip0">
<rect width="64" height="64" fill="white"/>
</clipPath>
</defs>
</svg>
