<svg width="64" height="64" viewBox="0 0 64 64" fill="none" xmlns="http://www.w3.org/2000/svg">
<g clip-path="url(#clip0)">
<path d="M17.4825 17.3236C17.9789 17.1761 18.2617 16.6543 18.1143 16.1579C17.9669 15.6614 17.4451 15.3786 16.9485 15.526C15.2521 16.03 13.7431 16.9471 12.5848 18.178C9.36017 21.6049 9.93412 26.2167 10.082 27.1063C10.1583 27.5651 10.5556 27.8903 11.0058 27.8903C11.5768 27.8903 12.026 27.3658 11.9319 26.7989C11.8095 26.0621 11.3316 22.2463 13.9505 19.463C15.1273 18.2125 16.5207 17.6093 17.4825 17.3236ZM38.3101 12.5455C37.1051 13.7504 37.0907 15.7704 38.31 16.978L40.7435 19.4118C41.4729 20.1407 42.4438 20.5423 43.4773 20.5423C44.5109 20.5423 45.4819 20.1406 46.2114 19.4114L53.0708 12.5519C54.3242 11.3088 54.2569 9.19319 52.9619 8.01528C51.723 6.88826 49.8046 6.95302 48.5943 8.16318L43.4773 13.2802L42.7428 12.5459C41.5404 11.3311 39.5161 11.3396 38.3101 12.5455ZM43.4773 15.3619C43.8452 15.3619 44.191 15.2186 44.4509 14.9586L49.9202 9.48923C50.4127 8.99666 51.211 8.95778 51.6997 9.40234C52.223 9.87828 52.2494 10.7269 51.7447 11.2258L44.8853 18.0854C44.5101 18.4605 44.0101 18.6671 43.4771 18.6671C42.9444 18.6671 42.4444 18.4605 42.0693 18.0857L39.636 15.6522C39.1493 15.1702 39.1516 14.3559 39.636 13.8717C40.1208 13.3871 40.9342 13.3845 41.4166 13.8717L42.5036 14.9587C42.7637 15.2186 43.1093 15.3619 43.477 15.3619H43.4773ZM46.5762 0.001486C46.0583 -0.0277678 45.6139 0.361283 45.5813 0.878101C45.5487 1.39492 45.941 1.84035 46.4578 1.87311C52.7692 2.27228 57.7132 7.54285 57.7132 13.8718C57.7132 20.6277 52.1875 25.8948 45.6904 25.8948C39.0611 25.8948 33.6676 20.5013 33.6676 13.8718C33.6676 8.5346 37.2524 3.78036 42.3854 2.31066C42.8832 2.16814 43.1712 1.64908 43.0287 1.15126C42.8862 0.653571 42.367 0.364909 41.8692 0.507927C36.5771 2.02313 32.7114 6.55984 31.9373 11.9004C31.1411 12.4486 30.2992 13.0672 29.5059 13.4646C28.2106 14.1136 27.1122 14.1722 25.8338 13.6613C24.8812 13.2798 24.0928 12.715 23.2581 12.1169C21.8864 11.1343 20.4681 10.1182 18.325 9.96104C15.7599 9.77439 12.868 10.6235 10.3911 12.2912C7.08087 14.5198 4.93234 18.5788 4.49641 23.4274C4.29688 25.6396 4.45091 27.7396 4.95435 29.6689C5.31139 31.0392 5.93172 32.309 6.53155 33.5369C7.0805 34.6604 7.59882 35.7218 7.92836 36.8468C8.5837 39.0847 8.50069 41.3075 8.41267 43.6606C8.38029 44.5279 8.34679 45.4249 8.35192 46.3298C8.38004 51.4986 8.41505 57.9312 12.537 61.6477C14.1807 63.1297 16.7998 64.6814 18.9397 63.6753C20.5198 62.9325 20.7668 61.2731 21.1088 58.9767C21.2861 57.7863 21.5068 56.3045 21.9501 54.5561C22.052 54.1541 22.1543 53.7151 22.2627 53.2506C22.4116 52.6125 22.637 51.7026 21.7155 51.4856C20.8128 51.2729 20.592 52.1581 20.4365 52.8245C20.3301 53.2803 20.2297 53.7108 20.1322 54.0954C19.6658 55.9352 19.4374 57.4685 19.254 58.7007C18.9481 60.7548 18.7857 61.6757 18.1421 61.9783C17.1001 62.4675 15.1236 61.4562 13.7929 60.2554C10.2857 57.0932 10.2533 51.1195 10.2272 46.3194C10.2222 45.4549 10.255 44.5784 10.2867 43.7308C10.3763 41.3315 10.4691 38.8506 9.7281 36.32C9.35367 35.0419 8.7756 33.8585 8.21652 32.714C7.63145 31.5162 7.07875 30.385 6.76883 29.1958C6.32027 27.4763 6.18401 25.5923 6.36416 23.5958C6.74933 19.3119 8.59882 15.7587 11.4384 13.847C13.574 12.4094 16.0339 11.6748 18.1885 11.8315C19.805 11.95 20.8992 12.734 22.1662 13.6416C23.0548 14.2782 23.9737 14.9364 25.1375 15.4025C26.9162 16.1136 28.5713 16.0305 30.3463 15.1413C30.8501 14.8887 31.3317 14.5888 31.7989 14.2754C32.0133 21.7528 38.1623 27.7699 45.6907 27.7699C46.7201 27.7699 47.7232 27.6564 48.6894 27.4431C48.4147 29.2729 47.8497 30.993 47.029 32.4785C44.8263 36.4675 44.8721 40.1817 44.9205 44.1141C44.9292 44.8295 44.9385 45.5692 44.9343 46.3242C44.9069 51.1226 44.8729 57.0942 41.3671 60.2555C40.0367 61.4562 38.0601 62.4677 37.0185 61.9783C36.3746 61.6756 36.2122 60.7547 35.9063 58.7004C35.7229 57.4684 35.4945 55.9351 35.0282 54.0956C34.2401 50.9867 32.957 44.9832 29.5988 43.2199C28.4774 42.6311 27.2583 42.5802 25.9752 43.0679C24.2267 43.7321 22.8806 45.3065 21.8598 47.8809C21.669 48.3623 21.9044 48.9073 22.3859 49.098C22.8673 49.2893 23.4123 49.0535 23.6032 48.5721C24.4189 46.5147 25.4128 45.2877 26.6416 44.8207C27.4114 44.5281 28.0936 44.5473 28.7273 44.8802C31.2665 46.2138 32.5377 51.9019 33.2105 54.556C33.6537 56.3044 33.8744 57.786 34.0517 58.9765C34.3937 61.273 34.6407 62.9323 36.2211 63.6753C38.3886 64.6945 40.9931 63.1179 42.6233 61.6478C46.7436 57.9326 46.7802 51.5019 46.8097 46.3297C46.8138 45.5626 46.8046 44.8145 46.7957 44.091C46.7484 40.2539 46.7076 36.9399 48.6706 33.385C49.7283 31.4707 50.4082 29.2238 50.6532 26.8531C55.8731 24.851 59.589 19.7875 59.589 13.8716C59.5885 6.55559 53.8727 0.463171 46.5762 0.001486ZM11.5543 29.575C11.0381 29.6151 10.6521 30.0663 10.6922 30.5825C10.7344 31.1246 10.8209 31.6668 10.9491 32.194C11.0534 32.6228 11.4369 32.9102 11.8594 32.9102C12.4541 32.9102 12.913 32.3335 12.7711 31.7506C12.6666 31.321 12.5962 30.8792 12.5618 30.4373C12.5216 29.9208 12.0695 29.5336 11.5543 29.575Z" fill="#F3F0EF"/>
</g>
<defs>
<clipPath id="clip0">
<rect width="64" height="64" fill="white"/>
</clipPath>
</defs>
</svg>
