
<svg width="25" height="25" viewBox="0 0 25 25" fill="none" xmlns="http://www.w3.org/2000/svg">
<g clip-path="url(#clip0)">
<path d="M23.0274 2.11963H15.5446C14.8653 2.11963 14.3139 2.67099 14.3139 3.35035V10.8332C14.3139 11.5125 14.8653 12.0639 15.5446 12.0639H19.126C19.0793 14.0232 18.6239 15.5911 17.7624 16.7702C17.083 17.7006 16.0542 18.471 14.6782 19.079C14.0456 19.3571 13.7724 20.1054 14.0678 20.7307L14.9539 22.6014C15.2394 23.2019 15.9459 23.4653 16.5563 23.2019C18.1858 22.498 19.5617 21.6069 20.6841 20.5239C22.0527 19.2021 22.9905 17.7104 23.4976 16.0465C24.0047 14.3826 24.2582 12.1131 24.2582 9.23321V3.35035C24.2582 2.67102 23.7068 2.11963 23.0274 2.11963Z" fill="#384157"/>
<path d="M2.86835 23.197C4.47813 22.4955 5.8467 21.6045 6.9765 20.5239C8.35738 19.2021 9.30011 17.7154 9.80717 16.0637C10.3142 14.4121 10.5677 12.1353 10.5677 9.23321V3.35035C10.5677 2.67099 10.0164 2.11963 9.33701 2.11963H1.85421C1.17485 2.11963 0.623484 2.67099 0.623484 3.35035V10.8332C0.623484 11.5125 1.17485 12.0639 1.85421 12.0639H5.43561C5.38884 14.0232 4.93348 15.5911 4.07197 16.7702C3.39261 17.7006 2.36373 18.471 0.987778 19.079C0.355186 19.3571 0.0819652 20.1054 0.377339 20.7307L1.261 22.5964C1.54655 23.197 2.25791 23.4629 2.86835 23.197Z" fill="#384157"/>
</g>
<defs>
<clipPath id="clip0">
<rect width="24" height="24" fill="white" transform="translate(0.258301 0.711914)"/>
</clipPath>
</defs>
</svg>
