<svg width="32" height="32" viewBox="0 0 32 32" fill="none" xmlns="http://www.w3.org/2000/svg">
<path d="M27.3948 7.50365C27.343 7.2185 27.069 7.02883 26.7848 7.08114C26.4997 7.13273 26.3106 7.40595 26.3623 7.6911C26.5146 8.52762 26.5914 9.40921 26.5914 10.3106C26.5914 16.0915 24.0025 30.9504 21.1578 30.952C20.6262 30.7561 20.0884 27.7024 19.7672 25.8779C19.0505 21.8094 18.3092 17.6024 15.9891 17.5939C14.0479 17.6024 13.2868 21.406 12.4809 25.4327C12.082 27.4295 11.4132 30.7722 10.8355 30.9504C7.97969 30.9504 5.3908 16.0918 5.3908 10.3106C5.3908 5.26883 7.68095 1.60979 10.8361 1.60979C11.5777 1.60979 12.3602 1.98047 13.1891 2.37309C14.0864 2.79831 15.0141 3.23783 15.9915 3.23783C16.3402 3.23783 16.7032 3.18219 17.1002 3.06771C17.3784 2.98766 17.539 2.69679 17.4589 2.41841C17.3788 2.14026 17.0915 1.97833 16.8096 2.05973C16.5078 2.14654 16.2403 2.18859 15.9912 2.18859C15.2496 2.18859 14.4671 1.81791 13.6382 1.42528C12.7408 1.00007 11.8131 0.560547 10.8358 0.560547C7.07306 0.560547 4.34148 4.66102 4.3418 10.3104C4.3418 12.855 4.92004 18.1385 5.99043 22.9182C7.34064 28.9441 8.97083 31.9997 10.8358 31.9997C12.1727 31.9997 12.6974 29.7012 13.5103 25.6387C14.0669 22.8547 14.9086 18.6479 15.9891 18.6433C17.4282 18.6484 18.1831 22.9324 18.7337 26.0601C19.364 29.6369 19.7805 32 21.1467 32C25.5522 32 27.6407 14.603 27.6407 10.3109C27.6406 9.34664 27.5582 8.40233 27.3948 7.50365Z" fill="#384157"/>
<path d="M11.9207 2.71313C9.2274 2.71313 7.03662 4.90423 7.03662 7.59726C7.03662 7.89679 7.27948 8.13996 7.57933 8.13996C7.87918 8.13996 8.12203 7.89711 8.12203 7.59726C8.12203 5.50251 9.82631 3.79847 11.9208 3.79847C12.2207 3.79847 12.4635 3.55538 12.4635 3.25576C12.4635 2.95615 12.2205 2.71313 11.9207 2.71313Z" fill="#384157"/>
<path d="M25.4921 0H18.9716C17.7771 0 16.8052 0.974918 16.8052 2.17345V3.26531C16.8052 3.56484 17.048 3.80801 17.3479 3.80801H21.1499V6.51678C21.1499 7.71094 22.1235 8.6826 23.3196 8.6826H25.4886C26.6853 8.6826 27.6588 7.70792 27.6585 6.5105V2.17234C27.6585 0.974679 26.6865 0 25.4921 0ZM26.5734 6.51002C26.5734 7.10941 26.0869 7.59703 25.4886 7.59703H23.3196C22.7218 7.59703 22.2353 7.11243 22.2353 6.51654V3.26507C22.2353 2.96553 21.9924 2.72236 21.6926 2.72236H17.8905V2.17313C17.8905 1.57319 18.3754 1.0851 18.9716 1.0851H25.4924C26.0885 1.0851 26.5734 1.57271 26.5734 2.1721V6.51002Z" fill="#384157"/>
<path d="M22.2317 9.76807C21.9318 9.76807 21.689 10.0112 21.689 10.3108V12.4815C21.689 12.7811 21.9318 13.0242 22.2317 13.0242C22.5315 13.0242 22.7744 12.7814 22.7744 12.4815V10.3108C22.7744 10.0112 22.5315 9.76807 22.2317 9.76807Z" fill="#384157"/>
</svg>
